<svg xmlns="http://www.w3.org/2000/svg" xmlns:xlink="http://www.w3.org/1999/xlink" width="56" height="55" viewBox="0 0 56 55">
  <defs>
    <clipPath id="clip-Icon_Instagram">
      <rect width="56" height="55"/>
    </clipPath>
  </defs>
  <g id="Icon_Instagram" data-name="Icon Instagram" clip-path="url(#clip-Icon_Instagram)">
    <rect width="56" height="55" fill="transparent"/>
    <g id="Group_237" data-name="Group 237" transform="translate(3 2)">
      <path id="Path_15" data-name="Path 15" d="M191.915,50.682h0a25.341,25.341,0,0,1-25.342-25.34h0a25.342,25.342,0,0,1,50.683,0h0a25.341,25.341,0,0,1-25.342,25.34" transform="translate(-166.573)" fill="#3cbd7a"/>
      <g id="Group_235" data-name="Group 235" transform="translate(11.448 11.446)">
        <path id="Path_16" data-name="Path 16" d="M189.064,11.1c3.71,0,4.149.015,5.614.081a7.674,7.674,0,0,1,2.581.478A4.6,4.6,0,0,1,199.9,14.3a7.691,7.691,0,0,1,.479,2.579c.067,1.465.081,1.9.081,5.615s-.015,4.149-.081,5.614a7.69,7.69,0,0,1-.479,2.579,4.6,4.6,0,0,1-2.637,2.638,7.674,7.674,0,0,1-2.581.478c-1.465.067-1.9.081-5.614.081s-4.149-.015-5.614-.081a7.674,7.674,0,0,1-2.581-.478,4.6,4.6,0,0,1-2.637-2.638,7.688,7.688,0,0,1-.479-2.579c-.067-1.465-.08-1.9-.08-5.614s.013-4.151.08-5.615a7.688,7.688,0,0,1,.479-2.579,4.6,4.6,0,0,1,2.637-2.638,7.674,7.674,0,0,1,2.581-.478c1.465-.067,1.9-.081,5.614-.081m0-2.5c-3.774,0-4.246.016-5.729.084a10.208,10.208,0,0,0-3.373.646A7.1,7.1,0,0,0,175.9,13.39a10.131,10.131,0,0,0-.646,3.372c-.068,1.482-.084,1.956-.084,5.73s.016,4.246.084,5.729a10.147,10.147,0,0,0,.646,3.373,7.1,7.1,0,0,0,4.063,4.063,10.173,10.173,0,0,0,3.373.646c1.482.068,1.955.084,5.729.084s4.246-.016,5.729-.084a10.174,10.174,0,0,0,3.373-.646,7.105,7.105,0,0,0,4.064-4.063,10.215,10.215,0,0,0,.646-3.373c.067-1.482.083-1.956.083-5.729s-.016-4.248-.083-5.73a10.2,10.2,0,0,0-.646-3.372,7.1,7.1,0,0,0-4.064-4.064,10.208,10.208,0,0,0-3.373-.646c-1.482-.068-1.955-.084-5.729-.084" transform="translate(-175.17 -8.596)" fill="#2f5179"/>
        <path id="Path_17" data-name="Path 17" d="M187.381,13.673a7.135,7.135,0,1,0,7.135,7.135,7.135,7.135,0,0,0-7.135-7.135m0,11.766a4.631,4.631,0,1,1,4.631-4.631,4.631,4.631,0,0,1-4.631,4.631" transform="translate(-173.487 -6.912)" fill="#2f5179"/>
        <path id="Path_18" data-name="Path 18" d="M193.256,13.875a1.667,1.667,0,1,1-1.667-1.667,1.668,1.668,0,0,1,1.667,1.667" transform="translate(-170.278 -7.398)" fill="#2f5179"/>
      </g>
    </g>
  </g>
</svg>
