<svg xmlns="http://www.w3.org/2000/svg" xmlns:xlink="http://www.w3.org/1999/xlink" width="56" height="55" viewBox="0 0 56 55">
  <defs>
    <clipPath id="clip-Icon_Linkedin">
      <rect width="56" height="55"/>
    </clipPath>
  </defs>
  <g id="Icon_Linkedin" data-name="Icon Linkedin" clip-path="url(#clip-Icon_Linkedin)">
    <rect width="56" height="55" fill="transparent"/>
    <g id="Group_240" data-name="Group 240" transform="translate(3 2)">
      <path id="Path_123" data-name="Path 123" d="M191.915,50.682h0a25.341,25.341,0,0,1-25.342-25.34h0a25.342,25.342,0,0,1,50.683,0h0a25.341,25.341,0,0,1-25.342,25.34" transform="translate(-166.573 0)" fill="#3cbd7a"/>
      <g id="Group_238" data-name="Group 238" transform="translate(13.958 13.958)">
        <rect id="Rectangle_238" data-name="Rectangle 238" width="4.582" height="14.801" transform="translate(0.441 7.4)" fill="#2f5179"/>
        <path id="Path_121" data-name="Path 121" d="M12.731,13.888a2.731,2.731,0,1,0-2.709-2.731,2.721,2.721,0,0,0,2.709,2.731" transform="translate(-10.022 -8.426)" fill="#2f5179"/>
        <path id="Path_122" data-name="Path 122" d="M21.253,21.883c0-2.081.957-3.32,2.792-3.32,1.684,0,2.494,1.19,2.494,3.32v7.769H31.1V20.281c0-3.964-2.247-5.881-5.384-5.881a5.162,5.162,0,0,0-4.461,2.445V14.851H16.858v14.8h4.395Z" transform="translate(-8.906 -7.451)" fill="#2f5179"/>
      </g>
    </g>
  </g>
</svg>
